<svg width="120" height="120" viewBox="0 0 120 120" fill="none" xmlns="http://www.w3.org/2000/svg">
  <!-- Left Figure (Forest) -->
  <!-- Head -->
  <circle cx="33" cy="32" r="8" stroke="#143D30" stroke-width="3.5" fill="none"/>

  <!-- Body outline -->
  <path d="M 27 40 C 22 43, 18 49, 18 56 L 18 76 C 18 82, 22 86, 27 86 L 39 86 C 44 86, 48 82, 48 76 L 48 56 C 48 49, 44 43, 39 40"
        stroke="#143D30" stroke-width="3.5" stroke-linecap="round" fill="none"/>

  <!-- Down arm (left side) -->
  <path d="M 27 46 L 21 70" stroke="#143D30" stroke-width="3.5" stroke-linecap="round" fill="none"/>

  <!-- Raised arm (right side) -->
  <path d="M 39 46 C 46 34, 54 24, 60 18" stroke="#143D30" stroke-width="3.5" stroke-linecap="round" fill="none"/>

  <!-- Left leg -->
  <path d="M 30 86 L 25 104" stroke="#143D30" stroke-width="3.5" stroke-linecap="round" fill="none"/>

  <!-- Right leg -->
  <path d="M 36 86 L 41 104" stroke="#143D30" stroke-width="3.5" stroke-linecap="round" fill="none"/>

  <!-- Right Figure (Lime) -->
  <!-- Head -->
  <circle cx="77" cy="32" r="8" stroke="#84CC16" stroke-width="3.5" fill="none"/>

  <!-- Body outline -->
  <path d="M 71 40 C 66 43, 62 49, 62 56 L 62 76 C 62 82, 66 86, 71 86 L 83 86 C 88 86, 92 82, 92 76 L 92 56 C 92 49, 88 43, 83 40"
        stroke="#84CC16" stroke-width="3.5" stroke-linecap="round" fill="none"/>

  <!-- Raised arm (left side) -->
  <path d="M 71 46 C 64 34, 56 24, 60 18" stroke="#84CC16" stroke-width="3.5" stroke-linecap="round" fill="none"/>

  <!-- Down arm (right side) -->
  <path d="M 83 46 L 89 70" stroke="#84CC16" stroke-width="3.5" stroke-linecap="round" fill="none"/>

  <!-- Left leg -->
  <path d="M 74 86 L 69 104" stroke="#84CC16" stroke-width="3.5" stroke-linecap="round" fill="none"/>

  <!-- Right leg -->
  <path d="M 80 86 L 85 104" stroke="#84CC16" stroke-width="3.5" stroke-linecap="round" fill="none"/>

  <!-- Sparks (Lime) -->
  <line x1="50" y1="12" x2="54" y2="4" stroke="#84CC16" stroke-width="3.5" stroke-linecap="round"/>
  <line x1="60" y1="12" x2="60" y2="3" stroke="#84CC16" stroke-width="3.5" stroke-linecap="round"/>
  <line x1="70" y1="12" x2="66" y2="4" stroke="#84CC16" stroke-width="3.5" stroke-linecap="round"/>
</svg>
